<!-- icon666.com - MILLIONS vector ICONS FREE --><svg id="Capa_1" enable-background="new 0 0 402.308 402.308" viewBox="0 0 402.308 402.308" xmlns="http://www.w3.org/2000/svg"><g><g><path d="m391.08 0h-379.479c-6.362 0-11.601 5.239-11.601 11.601v379.105c0 6.362 5.239 11.601 11.601 11.601h379.105c6.362 0 11.601-5.239 11.601-11.601v-379.479c0-6.362-4.865-11.227-11.227-11.227zm-11.601 379.105h-356.276v-356.276h355.902v356.276z" fill="#000000" style="fill: rgb(250, 250, 250);"></path><path d="m186.371 281.802c17.964 0 35.927-5.239 51.271-15.718l58.756 50.148c2.245 1.871 4.865 2.62 7.485 2.62 3.368 0 6.362-1.497 8.608-4.117 4.117-4.865 3.368-11.976-1.123-16.092l-56.136-47.903c14.97-16.841 23.203-38.172 23.203-61.001 0-24.7-9.73-47.528-26.945-65.118-17.215-17.215-40.418-26.945-65.118-26.945s-47.528 9.73-65.118 26.945c-17.215 17.589-26.945 40.418-26.945 65.118s9.73 47.528 26.945 65.118c17.963 17.964 41.54 26.945 65.117 26.945zm-48.651-140.714c13.098-13.098 30.313-20.209 48.651-20.209s35.553 7.111 48.651 20.209 20.209 30.313 20.209 48.651-7.111 35.553-20.209 48.651c-26.945 26.945-70.731 26.945-97.677 0-13.098-13.098-20.209-30.313-20.209-48.651.375-18.337 7.486-35.552 20.584-48.651z" fill="#000000" style="fill: rgb(250, 250, 250);"></path></g></g></svg>